<?xml version="1.0" encoding="utf-8"?>
<!-- Generator: Adobe Illustrator 17.0.0, SVG Export Plug-In . SVG Version: 6.00 Build 0)  -->
<!DOCTYPE svg PUBLIC "-//W3C//DTD SVG 1.1//EN" "http://www.w3.org/Graphics/SVG/1.1/DTD/svg11.dtd">
<svg version="1.1" id="Layer_1" xmlns="http://www.w3.org/2000/svg" xmlns:xlink="http://www.w3.org/1999/xlink" x="0px" y="0px"
	 width="613.164px" height="67.74px" viewBox="0 0 613.164 67.74" style="enable-background:new 0 0 613.164 67.74;"
	 xml:space="preserve">
<style type="text/css">
	.st0{fill:#FFFFFF;}
	.st1{fill:#13B8A6;stroke:#13B8A6;stroke-width:0.8994;stroke-miterlimit:10;}
	.st2{fill:none;stroke:#FFFFFF;stroke-width:2.7063;stroke-linecap:round;stroke-miterlimit:10;}
	.st3{fill:none;stroke:#FFFFFF;stroke-width:3.1986;stroke-linecap:round;stroke-miterlimit:10;}
</style>
<g>
	<path class="st0" d="M182.231,57.824h-6.595V35.541h-27.49v22.283h-6.595V9.23h6.595v20.062h27.49V9.23h6.595V57.824z"/>
	<path class="st0" d="M230.719,57.824h-6.636l-4.605-13.12h-18.609l-4.629,13.12h-7.004L206.434,9.23h7.166L230.719,57.824z
		 M217.385,38.734l-7.184-20.473l-7.225,20.473H217.385z"/>
	<path class="st0" d="M257.821,58.795c-7.128,0-12.971-2.312-17.529-6.941c-4.559-4.627-6.838-10.735-6.838-18.326
		c0-7.59,2.267-13.698,6.803-18.327c4.535-4.627,10.367-6.941,17.494-6.941c4.999,0,9.486,0.949,13.468,2.845l-0.694,6.11
		c-0.232-0.092-0.856-0.313-1.874-0.66c-1.019-0.348-1.713-0.59-2.083-0.73c-0.371-0.138-1.006-0.334-1.909-0.59
		c-0.902-0.253-1.655-0.439-2.256-0.555c-0.602-0.115-1.331-0.22-2.186-0.313c-0.857-0.092-1.678-0.139-2.465-0.139
		c-5.414,0-9.614,1.817-12.6,5.449c-2.985,3.633-4.478,8.25-4.478,13.849c0,5.601,1.504,10.217,4.513,13.849
		c3.007,3.634,7.242,5.449,12.704,5.449c0.693,0,1.364-0.022,2.013-0.068c0.647-0.047,1.319-0.14,2.014-0.278l1.734-0.347
		c0.463-0.093,1.088-0.278,1.875-0.556l1.597-0.485c0.323-0.093,0.925-0.301,1.805-0.625c0.878-0.323,1.411-0.509,1.597-0.556
		l0.694,6.108C267.098,57.869,262.633,58.795,257.821,58.795z"/>
	<path class="st0" d="M287.622,57.824h-6.595V9.23h6.595V57.824z M315.251,57.824h-6.941l-18.022-25.812L308.31,9.23h6.941
		L297.23,32.012L315.251,57.824z"/>
	<path class="st0" d="M365.761,57.824h-6.595V35.541h-27.49v22.283h-6.595V9.23h6.595v20.062h27.49V9.23h6.595V57.824z"/>
	<path class="st0" d="M414.284,57.824h-6.636l-4.604-13.12h-18.61l-4.63,13.12H372.8L389.999,9.23h7.166L414.284,57.824z
		 M400.951,38.734l-7.184-20.473l-7.225,20.473H400.951z"/>
	<path class="st0" d="M458.324,57.824h-5.554l-25.546-38.389v38.389h-6.595V9.23h7.392l23.708,36.001V9.23h6.595L458.324,57.824
		L458.324,57.824z"/>
	<path class="st0" d="M487.478,57.824h-17.979V9.23h17.979c7.174,0,12.992,2.165,17.46,6.491c4.465,4.328,6.698,10.263,6.698,17.806
		c0,7.544-2.233,13.479-6.698,17.806C500.47,55.661,494.652,57.824,487.478,57.824z M487.478,15.201h-11.384v36.653h11.384
		c5.415,0,9.591-1.653,12.531-4.964c2.937-3.308,4.407-7.762,4.407-13.362c0-5.599-1.47-10.054-4.407-13.363
		C497.069,16.856,492.893,15.201,487.478,15.201z"/>
	<g>
		<g>
			<path class="st1" d="M17.871,67.739c-7.739,0-10.805-4.521-10.805-8.965c0-4.062,0.92-11.878,0.92-16.093
				c0-6.054-3.448-7.05-7.663-7.05h-0.537c-0.996,0.001-1.762-0.766-1.762-1.762c0-0.996,0.766-1.763,1.762-1.763h0.537
				c4.215,0,7.663-0.996,7.663-7.126c0-5.518-0.92-8.353-0.92-16.093c0-4.366,3.065-8.888,10.805-8.888
				c1.149,0,2.146,0.996,2.146,2.146S19.021,4.29,17.871,4.29c-4.291,0-5.671,2.376-5.671,5.595c0,3.678,0.613,10.268,0.613,14.482
				c0,5.364-3.142,9.502-9.273,9.502c6.131,0,9.273,4.062,9.273,9.502c0,3.679-0.613,10.882-0.613,14.483
				c0,3.219,1.38,5.594,5.671,5.594c1.149,0,2.146,0.996,2.146,2.146S19.02,67.739,17.871,67.739z"/>
		</g>
	</g>
	<g>
		<g>
			<path class="st1" d="M98.39,65.594c0-1.149,0.996-2.146,2.146-2.146c4.291,0,5.671-2.375,5.671-5.594
				c0-3.601-0.613-10.805-0.613-14.483c0-5.44,3.142-9.502,9.272-9.502c-6.131,0-9.272-4.138-9.272-9.502
				c0-4.215,0.613-10.805,0.613-14.482c0-3.219-1.38-5.595-5.671-5.595c-1.149,0-2.146-0.996-2.146-2.145s0.996-2.146,2.146-2.146
				c7.739,0,10.805,4.521,10.805,8.889c0,7.74-0.92,10.575-0.92,16.093c0,6.13,3.448,7.126,7.663,7.126h0.536
				c0.997,0,1.763,0.767,1.763,1.763c0,0.996-0.766,1.763-1.763,1.763h-0.536c-4.215,0-7.663,0.996-7.663,7.05
				c0,4.215,0.92,12.031,0.92,16.093c0,4.444-3.065,8.965-10.805,8.965C99.386,67.739,98.39,66.743,98.39,65.594z"/>
		</g>
	</g>
	<g>
		<path class="st0" d="M75.501,14.496c5.39,0,9.76,4.369,9.76,9.76v14.098c0,5.39-4.37,9.76-9.76,9.76h-4.88l-9.217,11.68
			c0,0-0.723,0.777-1.441,0.777c-0.77,0-1.534-0.892-1.398-4.591c0.122-3.309,0.314-7.867,0.314-7.867H43.306
			c-5.39,0-9.76-4.37-9.76-9.76V24.256c0-5.391,4.37-9.76,9.76-9.76H75.501 M75.501,10.308H43.306
			c-7.691,0-13.948,6.257-13.948,13.948v14.098c0,7.691,6.257,13.948,13.948,13.948h11.209c-0.047,1.17-0.095,2.417-0.136,3.525
			c-0.089,2.416,0.046,5.435,1.898,7.356c0.98,1.017,2.289,1.577,3.685,1.577c2.295,0,3.917-1.478,4.508-2.113l0.116-0.125
			l0.105-0.134l7.96-10.087h2.85c7.691,0,13.948-6.257,13.948-13.948V24.256C89.45,16.565,83.193,10.308,75.501,10.308
			L75.501,10.308z"/>
	</g>
	<path class="st0" d="M315.251,57.824h-6.941l-18.022-25.812L308.31,9.23h6.941L297.23,32.012L315.251,57.824z"/>
	<path class="st2" d="M79.501,26.256"/>
	<path class="st2" d="M69.409,19.547"/>
	<path class="st3" d="M72.17,19.94c4.117,0,7.454,3.337,7.454,7.453"/>
	<path class="st0" d="M534.548,57.757c-6.559,0-11.738-1.017-15.538-3.052l0.882-7.532c4.252,3.167,9.183,4.749,14.792,4.749
		c1.628,0,3.132-0.146,4.512-0.44c1.38-0.293,2.579-0.746,3.597-1.357c1.017-0.609,1.809-1.38,2.375-2.306
		c0.564-0.927,0.848-2.003,0.848-3.224c0-1.266-0.295-2.363-0.882-3.292c-0.589-0.926-1.415-1.751-2.477-2.476
		c-1.064-0.724-2.354-1.379-3.868-1.967c-1.516-0.588-3.2-1.199-5.054-1.833l-4.751-1.56c-3.845-1.266-6.593-2.839-8.243-4.716
		c-1.651-1.877-2.477-4.105-2.477-6.684c0-1.357,0.272-2.838,0.815-4.444c0.542-1.605,1.458-3.097,2.748-4.478
		c1.289-1.379,3.029-2.521,5.225-3.427c2.192-0.904,4.963-1.356,8.312-1.356c1.356,0,2.758,0.091,4.207,0.271
		c1.446,0.182,2.837,0.419,4.173,0.713c1.333,0.295,2.566,0.645,3.697,1.052c1.13,0.407,2.08,0.814,2.85,1.221l-0.679,6.853
		c-5.699-2.85-10.245-4.274-13.638-4.274c-1.312,0-2.612,0.136-3.901,0.407s-2.432,0.702-3.427,1.29
		c-0.995,0.587-1.798,1.312-2.408,2.17c-0.61,0.86-0.916,1.9-0.916,3.121c0,1.991,0.848,3.541,2.544,4.648
		c1.697,1.109,4.264,2.205,7.701,3.291c0.95,0.316,1.64,0.52,2.069,0.61c0.43,0.091,0.849,0.193,1.256,0.306
		c0.407,0.113,0.96,0.295,1.662,0.542c0.701,0.25,1.819,0.713,3.358,1.391l2.308,1.221c0.586,0.318,1.073,0.589,1.458,0.815
		c0.384,0.227,0.69,0.451,0.916,0.678l1.696,1.765c1.04,1.085,1.731,2.262,2.069,3.527c0.34,1.268,0.576,2.781,0.713,4.546
		c0,1.357-0.203,2.794-0.61,4.309c-0.407,1.516-1.268,2.931-2.579,4.241c-1.312,1.311-3.178,2.408-5.598,3.29
		C541.865,57.249,538.62,57.713,534.548,57.757z"/>
	<g>
		<path class="st0" d="M564.156,22.589V8.362h5.337c1.087,0,1.959,0.144,2.616,0.432c0.656,0.288,1.171,0.731,1.543,1.33
			c0.372,0.599,0.558,1.225,0.558,1.878c0,0.608-0.165,1.181-0.495,1.718s-0.828,0.97-1.494,1.3c0.86,0.252,1.521,0.683,1.984,1.291
			c0.463,0.608,0.694,1.326,0.694,2.154c0,0.667-0.141,1.286-0.423,1.858c-0.281,0.573-0.629,1.014-1.043,1.325
			s-0.934,0.545-1.558,0.704c-0.624,0.159-1.39,0.238-2.295,0.238H564.156z M566.038,14.34h3.076c0.834,0,1.433-0.055,1.795-0.165
			c0.479-0.142,0.84-0.378,1.082-0.708c0.243-0.33,0.364-0.744,0.364-1.242c0-0.472-0.113-0.888-0.34-1.247s-0.55-0.605-0.971-0.737
			c-0.42-0.133-1.142-0.199-2.164-0.199h-2.843V14.34z M566.038,20.91h3.542c0.607,0,1.035-0.023,1.281-0.068
			c0.433-0.078,0.796-0.207,1.087-0.388c0.291-0.181,0.53-0.444,0.718-0.791s0.281-0.746,0.281-1.199
			c0-0.53-0.136-0.991-0.407-1.383s-0.648-0.667-1.131-0.825c-0.482-0.158-1.176-0.238-2.082-0.238h-3.289V20.91z"/>
		<path class="st0" d="M577.529,22.589V8.362h10.287v1.679h-8.404v4.357h7.87v1.669h-7.87v4.843h8.734v1.679H577.529z"/>
		<path class="st0" d="M594.367,22.589V10.041h-4.688V8.362h11.277v1.679h-4.707v12.548H594.367z"/>
		<path class="st0" d="M599.849,22.589l5.464-14.227h2.028l5.823,14.227h-2.146l-1.659-4.309h-5.949l-1.562,4.309H599.849z
			 M603.954,16.747h4.823l-1.485-3.94c-0.452-1.197-0.789-2.181-1.009-2.951c-0.182,0.913-0.437,1.818-0.767,2.718L603.954,16.747z"
			/>
	</g>
</g>
</svg>
